<svg width="14" height="15" viewBox="0 0 14 15" fill="none" xmlns="http://www.w3.org/2000/svg">
<g style="mix-blend-mode:luminosity">
<path d="M7 14.0137C7.49219 14.0137 7.89062 13.6074 7.89062 13.1465V8.25586H12.6562C13.1328 8.25586 13.5391 7.85742 13.5391 7.36523C13.5391 6.88086 13.1328 6.47461 12.6562 6.47461H7.89062V1.58398C7.89062 1.11523 7.49219 0.716797 7 0.716797C6.51562 0.716797 6.10938 1.11523 6.10938 1.58398V6.47461H1.34375C0.882812 6.47461 0.460938 6.88086 0.460938 7.36523C0.460938 7.85742 0.882812 8.25586 1.34375 8.25586H6.10938V13.1465C6.10938 13.6074 6.51562 14.0137 7 14.0137Z" fill="#797979"/>
</g>
</svg>
