<svg width="13" height="16" viewBox="0 0 13 16" fill="none" xmlns="http://www.w3.org/2000/svg">
<path fill-rule="evenodd" clip-rule="evenodd" d="M7.85042 3.36815C7.44466 3.58478 7.05953 3.6931 6.69504 3.6931C6.61939 3.6931 6.54717 3.68622 6.4784 3.67247C6.47152 3.65184 6.46465 3.61401 6.45777 3.55899C6.45089 3.50398 6.44745 3.44552 6.44745 3.38362C6.44745 2.97099 6.53686 2.57038 6.71567 2.18182C6.89448 1.79325 7.09736 1.47174 7.32431 1.21728C7.61315 0.873415 7.97765 0.588008 8.4178 0.361057C8.85794 0.134107 9.27746 0.0137546 9.67634 0C9.69697 0.0894047 9.70728 0.196003 9.70728 0.319794C9.70728 0.732431 9.6282 1.13303 9.47002 1.5216C9.31184 1.91017 9.10896 2.25575 8.86138 2.55835C8.59317 2.88158 8.25618 3.15152 7.85042 3.36815ZM5.0187 15.8349C4.77455 15.945 4.48743 16 4.15732 16C3.65528 16 3.21513 15.8006 2.83688 15.4017C2.45863 15.0028 2.07006 14.5248 1.67118 13.9678C1.2104 13.3075 0.816677 12.5012 0.490006 11.5487C0.163335 10.5962 0 9.63507 0 8.66538C0 7.62691 0.196003 6.75521 0.588008 6.05029C0.980013 5.34537 1.48377 4.81238 2.09929 4.45132C2.71481 4.09026 3.35268 3.90974 4.0129 3.90974C4.36364 3.90974 4.69375 3.96647 5.00322 4.07995C5.3127 4.19342 5.60327 4.30862 5.87492 4.42553C6.14657 4.54245 6.39244 4.6009 6.61251 4.6009C6.8257 4.6009 7.07329 4.53901 7.35525 4.41522C7.63722 4.29142 7.95358 4.16935 8.30432 4.049C8.65506 3.92865 9.02987 3.86847 9.42876 3.86847C9.58006 3.86847 9.83795 3.89254 10.2024 3.94068C10.5669 3.98882 10.9675 4.12465 11.4043 4.34816C11.841 4.57167 12.2381 4.94133 12.5957 5.45712C12.5751 5.47776 12.4754 5.55169 12.2966 5.67892C12.1178 5.80615 11.9183 5.99183 11.6983 6.23598C11.4782 6.48012 11.2856 6.7896 11.1206 7.16441C10.9555 7.53922 10.873 7.98453 10.873 8.50032C10.873 9.09177 10.9779 9.59381 11.1876 10.0064C11.3974 10.4191 11.6415 10.7509 11.9201 11.0019C12.1986 11.253 12.4462 11.4369 12.6628 11.5538C12.8794 11.6707 12.9946 11.7326 13.0084 11.7395C13.0015 11.767 12.9138 12.0112 12.7453 12.472C12.5768 12.9327 12.3 13.4451 11.9149 14.009C11.5779 14.4973 11.2151 14.9478 10.8266 15.3604C10.438 15.773 9.97206 15.9794 9.42876 15.9794C9.06426 15.9794 8.7651 15.9261 8.53127 15.8195C8.29744 15.7129 8.05674 15.6063 7.80916 15.4997C7.56157 15.3931 7.22802 15.3398 6.80851 15.3398C6.40275 15.3398 6.06404 15.3948 5.79239 15.5048C5.52074 15.6149 5.26284 15.7249 5.0187 15.8349Z" fill="black" fill-opacity="0.847059"/>
</svg>
