<svg width="13" height="13" viewBox="0 0 13 13" fill="none" xmlns="http://www.w3.org/2000/svg">
<path opacity="0.20" d="M0.459961 5.22363C0.459961 2.43066 2.73242 0.158203 5.52539 0.158203C8.31836 0.158203 10.5908 2.43066 10.5908 5.22363C10.5908 6.37891 10.2036 7.43896 9.5498 8.28955L12.6538 11.4126C12.7871 11.5459 12.8633 11.73 12.8633 11.9331C12.8633 12.3584 12.5649 12.6821 12.1333 12.6821C11.9302 12.6821 11.7397 12.6123 11.5938 12.4663L8.4707 9.33691C7.63916 9.93359 6.62988 10.2891 5.52539 10.2891C2.73242 10.2891 0.459961 8.0166 0.459961 5.22363ZM1.54541 5.22363C1.54541 7.41992 3.3291 9.20361 5.52539 9.20361C7.72168 9.20361 9.50537 7.41992 9.50537 5.22363C9.50537 3.02734 7.72168 1.24365 5.52539 1.24365C3.3291 1.24365 1.54541 3.02734 1.54541 5.22363Z" fill="black"/>
</svg>
