<svg width="15" height="19" viewBox="0 0 15 19" fill="none" xmlns="http://www.w3.org/2000/svg">
<g style="mix-blend-mode:luminosity">
<path d="M7.50781 12.4121C7.90625 12.4121 8.23438 12.084 8.23438 11.6934V3.83398L8.17969 2.67773L8.65625 3.24805L9.75 4.41211C9.875 4.55273 10.0547 4.62305 10.2344 4.62305C10.5938 4.62305 10.8906 4.36523 10.8906 3.99805C10.8906 3.80273 10.8125 3.66211 10.6797 3.5293L8.0625 1.00586C7.875 0.818359 7.69531 0.755859 7.50781 0.755859C7.3125 0.755859 7.14062 0.818359 6.95312 1.00586L4.32812 3.5293C4.19531 3.66211 4.11719 3.80273 4.11719 3.99805C4.11719 4.36523 4.40625 4.62305 4.76562 4.62305C4.94531 4.62305 5.13281 4.55273 5.25781 4.41211L6.35156 3.24805L6.83594 2.66992L6.77344 3.83398V11.6934C6.77344 12.084 7.10156 12.4121 7.50781 12.4121ZM3 18.6543H12C13.6953 18.6543 14.5703 17.7793 14.5703 16.1074V8.42773C14.5703 6.75586 13.6953 5.88086 12 5.88086H9.89062V7.43555H11.8984C12.6094 7.43555 13.0156 7.81055 13.0156 8.56055V15.9668C13.0156 16.7168 12.6094 17.0918 11.8984 17.0918H3.10156C2.38281 17.0918 1.98438 16.7168 1.98438 15.9668V8.56055C1.98438 7.81055 2.38281 7.43555 3.10156 7.43555H5.13281V5.88086H3C1.3125 5.88086 0.429688 6.74805 0.429688 8.42773V16.1074C0.429688 17.7793 1.3125 18.6543 3 18.6543Z" fill="#797979"/>
</g>
</svg>
