<svg width="15" height="17" viewBox="0 0 15 17" fill="none" xmlns="http://www.w3.org/2000/svg">
<g style="mix-blend-mode:luminosity">
<path d="M7.5 16.498C7.64062 16.498 7.85156 16.4512 8.04688 16.3418C12.5469 13.8965 14.1094 12.7637 14.1094 9.91992V4.02148C14.1094 3.08398 13.7422 2.74805 12.9609 2.41211C12.0938 2.04492 9.17969 1.0293 8.32812 0.740234C8.07031 0.654297 7.76562 0.599609 7.5 0.599609C7.23438 0.599609 6.92969 0.669922 6.67188 0.740234C5.82031 0.982422 2.90625 2.05273 2.03906 2.41211C1.25781 2.74023 0.890625 3.08398 0.890625 4.02148V9.91992C0.890625 12.7637 2.46094 13.8809 6.94531 16.3418C7.14844 16.4512 7.35938 16.498 7.5 16.498ZM7.92188 2.17773C8.94531 2.58398 11.1719 3.37305 12.3438 3.78711C12.5625 3.87305 12.6172 3.99023 12.6172 4.27148V9.63086C12.6172 11.9199 11.4688 12.5371 7.94531 14.6621C7.72656 14.7949 7.61719 14.8418 7.50781 14.8418V2.0918C7.61719 2.0918 7.73438 2.11523 7.92188 2.17773Z" fill="#797979"/>
</g>
</svg>
