<svg width="19" height="15" viewBox="0 0 19 15" fill="none" xmlns="http://www.w3.org/2000/svg">
<g style="mix-blend-mode:luminosity">
<path d="M2.8125 14.6699H16.1797C17.875 14.6699 18.7578 13.7949 18.7578 12.123V2.61523C18.7578 0.943359 17.875 0.0683594 16.1797 0.0683594H2.8125C1.125 0.0683594 0.242188 0.935547 0.242188 2.61523V12.123C0.242188 13.7949 1.125 14.6699 2.8125 14.6699ZM2.91406 13.1152C2.19531 13.1152 1.79688 12.7402 1.79688 11.9824V2.75586C1.79688 1.99805 2.19531 1.62305 2.91406 1.62305H6.47656V13.1152H2.91406ZM16.0781 1.62305C16.7969 1.62305 17.1953 1.99805 17.1953 2.75586V11.9824C17.1953 12.7402 16.7969 13.1152 16.0781 13.1152H7.95312V1.62305H16.0781ZM4.94531 4.48242C5.22656 4.48242 5.46094 4.24023 5.46094 3.97461C5.46094 3.70898 5.22656 3.47461 4.94531 3.47461H3.34375C3.0625 3.47461 2.82812 3.70898 2.82812 3.97461C2.82812 4.24023 3.0625 4.48242 3.34375 4.48242H4.94531ZM4.94531 6.58398C5.22656 6.58398 5.46094 6.34961 5.46094 6.07617C5.46094 5.81055 5.22656 5.57617 4.94531 5.57617H3.34375C3.0625 5.57617 2.82812 5.81055 2.82812 6.07617C2.82812 6.34961 3.0625 6.58398 3.34375 6.58398H4.94531ZM4.94531 8.67773C5.22656 8.67773 5.46094 8.45117 5.46094 8.17773C5.46094 7.91211 5.22656 7.68555 4.94531 7.68555H3.34375C3.0625 7.68555 2.82812 7.91211 2.82812 8.17773C2.82812 8.45117 3.0625 8.67773 3.34375 8.67773H4.94531Z" fill="#797979"/>
</g>
</svg>
