<svg width="17" height="18" viewBox="0 0 17 18" fill="none" xmlns="http://www.w3.org/2000/svg">
<g style="mix-blend-mode:luminosity">
<path d="M2.58594 14.0371H3.91406V15.2168C3.91406 16.8887 4.79688 17.7637 6.48438 17.7637H14.4062C16.0938 17.7637 16.9766 16.8887 16.9766 15.2168V7.24023C16.9766 5.56836 16.0938 4.69336 14.4062 4.69336H13.0781V3.52148C13.0781 1.84961 12.1953 0.974609 10.5078 0.974609H2.58594C0.890625 0.974609 0.015625 1.84961 0.015625 3.52148V11.4902C0.015625 13.1699 0.890625 14.0371 2.58594 14.0371ZM2.6875 12.4824C1.96875 12.4824 1.57031 12.1074 1.57031 11.3496V3.66211C1.57031 2.9043 1.96875 2.53711 2.6875 2.53711H10.4062C11.1172 2.53711 11.5234 2.9043 11.5234 3.66211V4.69336H6.48438C4.79688 4.69336 3.91406 5.56836 3.91406 7.24023V12.4824H2.6875ZM6.58594 16.2012C5.86719 16.2012 5.47656 15.8262 5.47656 15.0762V7.38086C5.47656 6.63086 5.86719 6.25586 6.58594 6.25586H14.3047C15.0234 6.25586 15.4219 6.63086 15.4219 7.38086V15.0762C15.4219 15.8262 15.0234 16.2012 14.3047 16.2012H6.58594Z" fill="#797979"/>
</g>
</svg>
